/* XPM */
static char *_88f0a169ade4bf0e0f90d18bebe2f62tqzYj1XvdFuQ8Bag[] = {
/* columns rows colors chars-per-pixel */
"32 32 6 1 ",
"  c None",
". c black",
"X c #0C010E",
"o c #681579",
"O c red",
"+ c white",
/* pixels */
"                                ",
"                                ",
"                                ",
"                                ",
"                 XXXXXX         ",
"                XXooooXXXX      ",
"   XXXXXXXXX    XoooXXXXXXX     ",
"  XXoooXXooXXX  XXXXooooooXX    ",
" XXoooXXoooXXXX ......oooooXX   ",
" XoooXXooXXXoo..oooooo.XXXXXXX  ",
"XXooXXooXXooo.oooooooooo.ooooX  ",
"XooXXoooXooo.oooooooooooo.oooX  ",
"XooXooXXXXX.ooooo..ooo..ooXXXX  ",
"XooXXXX   XXooooo.Oooo.Ooo.ooX  ",
"XoXXX      .oooooooooooooo.ooX  ",
"XXX        .oooooooooooooo.XX   ",
"           .ooooooo++++ooo.     ",
"            .oooooo+oo+oo.      ",
"             .oooooooooo.       ",
"              ..oooooo..        ",
"                ......          ",
"                                ",
"                                ",
"                                ",
"                                ",
"                                ",
"                                ",
"                                ",
"                                ",
"                                ",
"                                ",
"                                "
};
