/* XPM */
static char *_eaf02ea32224989dd0ee607ac4442eaASsTlgNcZiyD39Ub[] = {
/* columns rows colors chars-per-pixel */
"32 32 6 1 ",
"  c None",
". c black",
"X c #0C010E",
"o c #681579",
"O c red",
"+ c white",
/* pixels */
"                                ",
"                                ",
"        .........               ",
"       ..oo...                  ",
"     ...ooo.            .....   ",
"    ..oooo....       ....ooo..  ",
"    .ooo...  .     ......oooo.. ",
"    .ooo...       ..oooo..oooo..",
"   ..oo.o...     ....oooo..oooo.",
"   .ooo.o.........oo..oooo.oooo.",
"  ..oo.o..oooooo..oooo.ooo......",
"  .ooo..oooooooooo.ooo..ooo..  .",
"  .ooo.oooooooooooo.ooo.oooo.   ",
"  .oo.ooXXoooXXooooo.o.......   ",
"   ...ooOXoooOXooooo.....   .   ",
"    ..oooooooooooooo.   .       ",
"     .oooooooooooooo.           ",
"     .ooo++++ooooooo.           ",
"      .oo+oo+oooooo.            ",
"       .oooooooooo.             ",
"        ..oooooo..              ",
"          ......                ",
"                                ",
"                                ",
"                                ",
"                                ",
"                                ",
"                                ",
"                                ",
"                                ",
"                                ",
"                                "
};
