/* XPM */
static char *f8494f05454640d0d06d46047d956e5a5NFr7iIAHw1UGrTM[] = {
/* columns rows colors chars-per-pixel */
"32 32 6 1 ",
"  c None",
". c black",
"X c #0C010E",
"o c #681579",
"O c red",
"+ c white",
/* pixels */
"                                ",
"                                ",
"               .........        ",
"                  ...oo..       ",
"   .....            .ooo...     ",
"  ..ooo....       ....oooo..    ",
" ..oooo......     .  ...ooo.    ",
"..oooo..oooo..       ...ooo.    ",
".oooo..oooo....     ...o.oo..   ",
".oooo.oooo..oo.........o.ooo.   ",
"......ooo.oooo..oooooo..o.oo..  ",
".  ..ooo..ooo.oooooooooo..ooo.  ",
"   .oooo.ooo.oooooooooooo.ooo.  ",
"   .......o.oooooXXoooXXoo.oo.  ",
"   .   .....oooooXOoooXOoo...   ",
"       .   .oooooooooooooo..    ",
"           .oooooooooooooo.     ",
"           .ooooooo++++ooo.     ",
"            .oooooo+oo+oo.      ",
"             .oooooooooo.       ",
"              ..oooooo..        ",
"                ......          ",
"                                ",
"                                ",
"                                ",
"                                ",
"                                ",
"                                ",
"                                ",
"                                ",
"                                ",
"                                "
};
