/* XPM */
static char *_a7305743c664253be844b7d2b17d2f3Tb3ynPSz5ZBCDG0U[] = {
/* columns rows colors chars-per-pixel */
"32 32 6 1 ",
"  c None",
". c black",
"X c #0C010E",
"o c #681579",
"O c red",
"+ c white",
/* pixels */
"                                ",
"                                ",
"                                ",
"                                ",
"         XXXXXX                 ",
"      XXXXooooXX                ",
"     XXXXXXXoooX    XXXXXXXXX   ",
"    XXooooooXXXX  XXXooXXoooXX  ",
"   XXooooo...... XXXXoooXXoooXX ",
"  XXXXXXX.oooooo..ooXXXooXXoooX ",
"  Xoooo.oooooooooo.oooXXooXXooXX",
"  Xooo.oooooooooooo.oooXoooXXooX",
"  XXXXoo..ooo..ooooo.XXXXXooXooX",
"  Xoo.ooO.oooO.oooooXX   XXXXooX",
"  Xoo.oooooooooooooo.      XXXoX",
"   XX.oooooooooooooo.        XXX",
"     .ooo++++ooooooo.           ",
"      .oo+oo+oooooo.            ",
"       .oooooooooo.             ",
"        ..oooooo..              ",
"          ......                ",
"                                ",
"                                ",
"                                ",
"                                ",
"                                ",
"                                ",
"                                ",
"                                ",
"                                ",
"                                ",
"                                "
};
