/* XPM */
static char *_b18312a8d2e4c73f9aa37b934bd240amRnLQUI9Ybb2GBFA[] = {
/* columns rows colors chars-per-pixel */
"64 64 6 1 ",
"  c None",
". c black",
"X c #0C010E",
"o c #681579",
"O c red",
"+ c white",
/* pixels */
"                                                                ",
"                                                                ",
"                                                                ",
"                                                                ",
"                ..................                              ",
"                ..................                              ",
"              ....oooo......                                    ",
"              ....oooo......                                    ",
"          ......oooooo..                        ..........      ",
"          ......oooooo..                        ..........      ",
"        ....oooooooo........              ........oooooo....    ",
"        ....oooooooo........              ........oooooo....    ",
"        ..oooooo......    ..          ............oooooooo....  ",
"        ..oooooo......    ..          ............oooooooo....  ",
"        ..oooooo......              ....oooooooo....oooooooo....",
"        ..oooooo......              ....oooooooo....oooooooo....",
"      ....oooo..oo......          ........oooooooo....oooooooo..",
"      ....oooo..oo......          ........oooooooo....oooooooo..",
"      ..oooooo..oo..................oooo....oooooooo..oooooooo..",
"      ..oooooo..oo..................oooo....oooooooo..oooooooo..",
"    ....oooo..oo....oooooooooooo....oooooooo..oooooo............",
"    ....oooo..oo....oooooooooooo....oooooooo..oooooo............",
"    ..oooooo....oooooooooooooooooooo..oooooo....oooooo....    ..",
"    ..oooooo....oooooooooooooooooooo..oooooo....oooooo....    ..",
"    ..oooooo..oooooooooooooooooooooooo..oooooo..oooooooo..      ",
"    ..oooooo..oooooooooooooooooooooooo..oooooo..oooooooo..      ",
"    ..oooo..ooooXXXXooooooXXXXoooooooooo..oo..............      ",
"    ..oooo..ooooXXXXooooooXXXXoooooooooo..oo..............      ",
"      ......ooooOOXXooooooOOXXoooooooooo..........      ..      ",
"      ......ooooOOXXooooooOOXXoooooooooo..........      ..      ",
"        ....oooooooooooooooooooooooooooo..      ..              ",
"        ....oooooooooooooooooooooooooooo..      ..              ",
"          ..oooooooooooooooooooooooooooo..                      ",
"          ..oooooooooooooooooooooooooooo..                      ",
"          ..oooooo++++++++oooooooooooooo..                      ",
"          ..oooooo++++++++oooooooooooooo..                      ",
"            ..oooo++oooo++oooooooooooo..                        ",
"            ..oooo++oooo++oooooooooooo..                        ",
"              ..oooooooooooooooooooo..                          ",
"              ..oooooooooooooooooooo..                          ",
"                ....oooooooooooo....                            ",
"                ....oooooooooooo....                            ",
"                    ............                                ",
"                    ............                                ",
"                                                                ",
"                                                                ",
"                                                                ",
"                                                                ",
"                                                                ",
"                                                                ",
"                                                                ",
"                                                                ",
"                                                                ",
"                                                                ",
"                                                                ",
"                                                                ",
"                                                                ",
"                                                                ",
"                                                                ",
"                                                                ",
"                                                                ",
"                                                                ",
"                                                                ",
"                                                                "
};
