/* XPM */
static char *_2a9e0373e724ec29e9d56648f012d10lIKKpPobjslHFL9J[] = {
/* columns rows colors chars-per-pixel */
"64 64 6 1 ",
"  c black",
". c black",
"X c #0C010E",
"o c #681579",
"O c red",
"+ c white",
/* pixels */
"                                                                ",
"                                                                ",
"                                                                ",
"                                                                ",
"                                                                ",
"                                                                ",
"                                                                ",
"                                                                ",
"                                                                ",
"                                                                ",
"                                                                ",
"                                                                ",
"                                                                ",
"                                                                ",
"                                                                ",
"                                                                ",
"                    ............                                ",
"                    ............                                ",
"                XX..oooooooooooo....                            ",
"                XX..oooooooooooo....                            ",
"              ..oooooooooooooooooooo..                          ",
"              ..oooooooooooooooooooo..                          ",
"            ..oooooooooooooooooooooooo..                        ",
"            ..oooooooooooooooooooooooo..                        ",
"          XXoooo....oooooo....oooooooooo..                      ",
"          XXoooo....oooooo....oooooooooo..                      ",
"          ..ooooOO..ooooooOO..ooooooooooXX                      ",
"          ..ooooOO..ooooooOO..ooooooooooXX                      ",
"          ..ooooooooooooooooooooooooooooooXX                    ",
"          ..ooooooooooooooooooooooooooooooXX                    ",
"          ..ooooooooooooooooooooooooooooooXX                    ",
"          ..ooooooooooooooooooooooooooooooXX                    ",
"          ..oooooo++++++++oooooooooooooo....                    ",
"          ..oooooo++++++++oooooooooooooo....                    ",
"          ....oooo++oooo++oooooooooooooo..                      ",
"          ....oooo++oooo++oooooooooooooo..                      ",
"          ..oo..oooooooooooooo..oooooooo..                      ",
"          ..oo..oooooooooooooo..oooooooo..                      ",
"        ....oo......oooooooooo....oooo......                    ",
"        ....oo......oooooooooo....oooo......                    ",
"        ..oooooo..................oo....oo..                    ",
"        ..oooooo..................oo....oo..                    ",
"        ..oooo....oo..          ......oo....                    ",
"        ..oooo....oo..          ......oo....                    ",
"        ..oooo......            ....oooo..oo..                  ",
"        ..oooo......            ....oooo..oo..                  ",
"        ..oo..oo..              ....oo....oo..                  ",
"        ..oo..oo..              ....oo....oo..                  ",
"        ....oooo..              ..oooo..oooooo..                ",
"        ....oooo..              ..oooo..oooooo..                ",
"        ....oooo..              ..oo....oooo......              ",
"        ....oooo..              ..oo....oooo......              ",
"        ....oo..oo..            ..oo..oooo....oo..              ",
"        ....oo..oo..            ..oo..oooo....oo..              ",
"        ......oooo..            ......oo....oooo....            ",
"        ......oooo..            ......oo....oooo....            ",
"        ......oooooo..            ......oooooooooo....          ",
"        ......oooooo..            ......oooooooooo....          ",
"        ......oooooo....            ........oooooooo......      ",
"        ......oooooo....            ........oooooooo......      ",
"          ..............                  ................      ",
"          ..............                  ................      ",
"                                                                ",
"                                                                "
};
