/* XPM */
static char *e7414677d2164882a1576786f7f60942A9KeDD4Tpdkjn4dL[] = {
/* columns rows colors chars-per-pixel */
"64 64 6 1 ",
"  c None",
". c black",
"X c #0C010E",
"o c #681579",
"O c red",
"+ c white",
/* pixels */
"                                                                ",
"                                                                ",
"                                                                ",
"                                                                ",
"                                                                ",
"                                                                ",
"                                                                ",
"                                                                ",
"                                  XXXXXXXXXXXX                  ",
"                                  XXXXXXXXXXXX                  ",
"                                XXXXooooooooXXXXXXXX            ",
"                                XXXXooooooooXXXXXXXX            ",
"      XXXXXXXXXXXXXXXXXX        XXooooooXXXXXXXXXXXXXX          ",
"      XXXXXXXXXXXXXXXXXX        XXooooooXXXXXXXXXXXXXX          ",
"    XXXXooooooXXXXooooXXXXXX    XXXXXXXXooooooooooooXXXX        ",
"    XXXXooooooXXXXooooXXXXXX    XXXXXXXXooooooooooooXXXX        ",
"  XXXXooooooXXXXooooooXXXXXXXX  ............ooooooooooXXXX      ",
"  XXXXooooooXXXXooooooXXXXXXXX  ............ooooooooooXXXX      ",
"  XXooooooXXXXooooXXXXXXoooo....oooooooooooo..XXXXXXXXXXXXXX    ",
"  XXooooooXXXXooooXXXXXXoooo....oooooooooooo..XXXXXXXXXXXXXX    ",
"XXXXooooXXXXooooXXXXoooooo..oooooooooooooooooooo..ooooooooXX    ",
"XXXXooooXXXXooooXXXXoooooo..oooooooooooooooooooo..ooooooooXX    ",
"XXooooXXXXooooooXXoooooo..oooooooooooooooooooooooo..ooooooXX    ",
"XXooooXXXXooooooXXoooooo..oooooooooooooooooooooooo..ooooooXX    ",
"XXooooXXooooXXXXXXXXXX..oooooooooo....oooooo....ooooXXXXXXXX    ",
"XXooooXXooooXXXXXXXXXX..oooooooooo....oooooo....ooooXXXXXXXX    ",
"XXooooXXXXXXXX      XXXXoooooooooo..OOoooooo..OOoooo..          ",
"XXooooXXXXXXXX      XXXXoooooooooo..OOoooooo..OOoooo..          ",
"XXooXXXXXX            ..oooooooooooooooooooooooooooo..          ",
"XXooXXXXXX            ..oooooooooooooooooooooooooooo..          ",
"XXXXXX                ..oooooooooooooooooooooooooooo..          ",
"XXXXXX                ..oooooooooooooooooooooooooooo..          ",
"                      ..oooooooooooooo++++++++oooooo..          ",
"                      ..oooooooooooooo++++++++oooooo..          ",
"                        ..oooooooooooo++oooo++oooo..            ",
"                        ..oooooooooooo++oooo++oooo..            ",
"                          ..oooooooooooooooooooo..              ",
"                          ..oooooooooooooooooooo..              ",
"                            ....oooooooooooo....                ",
"                            ....oooooooooooo....                ",
"                                ............                    ",
"                                ............                    ",
"                                                                ",
"                                                                ",
"                                                                ",
"                                                                ",
"                                                                ",
"                                                                ",
"                                                                ",
"                                                                ",
"                                                                ",
"                                                                ",
"                                                                ",
"                                                                ",
"                                                                ",
"                                                                ",
"                                                                ",
"                                                                ",
"                                                                ",
"                                                                ",
"                                                                ",
"                                                                ",
"                                                                ",
"                                                                "
};
