/* XPM */
static char *_2112a99df7547cce2f8bb66561efab5faX5tKTXX4OcrdBF[] = {
/* columns rows colors chars-per-pixel */
"64 64 6 1 ",
"  c none",
". c none",
"X c #0C010E",
"o c #681579",
"O c red",
"+ c white",
/* pixels */
"                                                                ",
"                                                                ",
"                                                                ",
"                                                                ",
"                                                                ",
"                                                                ",
"                                                                ",
"                                                                ",
"                  XXXXXXXXXXXX                                  ",
"                  XXXXXXXXXXXX                                  ",
"            XXXXXXXXooooooooXXXX                                ",
"            XXXXXXXXooooooooXXXX                                ",
"          XXXXXXXXXXXXXXooooooXX        XXXXXXXXXXXXXXXXXX      ",
"          XXXXXXXXXXXXXXooooooXX        XXXXXXXXXXXXXXXXXX      ",
"        XXXXooooooooooooXXXXXXXX    XXXXXXooooXXXXooooooXXXX    ",
"        XXXXooooooooooooXXXXXXXX    XXXXXXooooXXXXooooooXXXX    ",
"      XXXXoooooooooo............  XXXXXXXXooooooXXXXooooooXXXX  ",
"      XXXXoooooooooo............  XXXXXXXXooooooXXXXooooooXXXX  ",
"    XXXXXXXXXXXXXX..oooooooooooo....ooooXXXXXXooooXXXXooooooXX  ",
"    XXXXXXXXXXXXXX..oooooooooooo....ooooXXXXXXooooXXXXooooooXX  ",
"    XXoooooooo..oooooooooooooooooooo..ooooooXXXXooooXXXXooooXXXX",
"    XXoooooooo..oooooooooooooooooooo..ooooooXXXXooooXXXXooooXXXX",
"    XXoooooo..oooooooooooooooooooooooo..ooooooXXooooooXXXXooooXX",
"    XXoooooo..oooooooooooooooooooooooo..ooooooXXooooooXXXXooooXX",
"    XXXXXXXXoooo....oooooo....oooooooooo..XXXXXXXXXXooooXXooooXX",
"    XXXXXXXXoooo....oooooo....oooooooooo..XXXXXXXXXXooooXXooooXX",
"          ..ooooOO..ooooooOO..ooooooooooXXXX      XXXXXXXXooooXX",
"          ..ooooOO..ooooooOO..ooooooooooXXXX      XXXXXXXXooooXX",
"          ..oooooooooooooooooooooooooooo..            XXXXXXooXX",
"          ..oooooooooooooooooooooooooooo..            XXXXXXooXX",
"          ..oooooooooooooooooooooooooooo..                XXXXXX",
"          ..oooooooooooooooooooooooooooo..                XXXXXX",
"          ..oooooo++++++++oooooooooooooo..                      ",
"          ..oooooo++++++++oooooooooooooo..                      ",
"            ..oooo++oooo++oooooooooooo..                        ",
"            ..oooo++oooo++oooooooooooo..                        ",
"              ..oooooooooooooooooooo..                          ",
"              ..oooooooooooooooooooo..                          ",
"                ....oooooooooooo....                            ",
"                ....oooooooooooo....                            ",
"                    ............                                ",
"                    ............                                ",
"                                                                ",
"                                                                ",
"                                                                ",
"                                                                ",
"                                                                ",
"                                                                ",
"                                                                ",
"                                                                ",
"                                                                ",
"                                                                ",
"                                                                ",
"                                                                ",
"                                                                ",
"                                                                ",
"                                                                ",
"                                                                ",
"                                                                ",
"                                                                ",
"                                                                ",
"                                                                ",
"                                                                ",
"                                                                "
};
