/* XPM */
static char *_98d3def37864c2dee6d16d325ffc39feJlILBi3purztETL[] = {
/* columns rows colors chars-per-pixel */
"64 64 7 1 ",
"  c None",
". c black",
"X c #143503",
"o c #431C00",
"O c #532300",
"+ c #797800",
"@ c #E2E000",
/* pixels */
"                                                                ",
"                                                                ",
"                                                                ",
"                                                                ",
"                                                                ",
"                                                                ",
"                                                                ",
"                                                                ",
"                                                                ",
"                                                                ",
"                      ........XX..........                      ",
"                      ........XX..........                      ",
"                    ..ooooooooXXoooooooooo..                    ",
"                    ..ooooooooXXoooooooooo..                    ",
"                    ..ooOOOOOOXXOOOOOOOOoo..                    ",
"                    ..ooOOOOOOXXOOOOOOOOoo..                    ",
"                  ..ooooOOOOXXOOOOOOOOOOOOoo..                  ",
"                  ..ooooOOOOXXOOOOOOOOOOOOoo..                  ",
"                  XXXXXXXXXXXX++++OOOOOOOOoo..                  ",
"                  XXXXXXXXXXXX++++OOOOOOOOoo..                  ",
"                  ..ooOOOOOOOO@@@@OOOOOOOOOOoo..                ",
"                  ..ooOOOOOOOO@@@@OOOOOOOOOOoo..                ",
"                ..ooooOOOOOOOO@@@@OOOOOOOOOOoo..                ",
"                ..ooooOOOOOOOO@@@@OOOOOOOOOOoo..                ",
"                ..ooOO++@@@@@@@@@@@@@@@@++OOoo..                ",
"                ..ooOO++@@@@@@@@@@@@@@@@++OOoo..                ",
"              ..ooOOOO++@@@@@@@@@@@@@@@@++OOOOoo..              ",
"              ..ooOOOO++@@@@@@@@@@@@@@@@++OOOOoo..              ",
"              ..ooOOOOOOOOOOOO@@@@OOOOOOOOOOOOoo..              ",
"              ..ooOOOOOOOOOOOO@@@@OOOOOOOOOOOOoo..              ",
"              ..ooOOOOOOOOOOOO@@@@OOOOOOOOOOOOoo..              ",
"              ..ooOOOOOOOOOOOO@@@@OOOOOOOOOOOOoo..              ",
"              ..ooooOOOOOOOOOO@@@@OOOOOOOOOOOOoo..              ",
"              ..ooooOOOOOOOOOO@@@@OOOOOOOOOOOOoo..              ",
"                ..ooOOOOOOOOOO@@@@OOOOOOOOOOoo..                ",
"                ..ooOOOOOOOOOO@@@@OOOOOOOOOOoo..                ",
"                ..ooOOOOOOOOOO@@@@OOOOOOOOOOoo..                ",
"                ..ooOOOOOOOOOO@@@@OOOOOOOOOOoo..                ",
"                ..ooOOOOOOOOOO++++OOOOOOOOOOoo..                ",
"                ..ooOOOOOOOOOO++++OOOOOOOOOOoo..                ",
"                ..ooOOOOOOOOOOOOOOOOOOOOOOOOoo..                ",
"                ..ooOOOOOOOOOOOOOOOOOOOOOOOOoo..                ",
"                  ..ooOOOOOOOOOOOOOOOOOOOOoo..                  ",
"                  ..ooOOOOOOOOOOOOOOOOOOOOoo..                  ",
"                  ..ooXXOOOOOOOOOOOOOOOOOOoo..                  ",
"                  ..ooXXOOOOOOOOOOOOOOOOOOoo..                  ",
"                  ..ooXXOOOOOOOOOOOOOOOOOOoo..                  ",
"                  ..ooXXOOOOOOOOOOOOOOOOOOoo..                  ",
"                  ..ooXXOOOOOOOOOOOOOOOOXXXXXX                  ",
"                  ..ooXXOOOOOOOOOOOOOOOOXXXXXX                  ",
"                  ..XXXXOOOOOOOOOOOOXXXXXXoo..                  ",
"                  ..XXXXOOOOOOOOOOOOXXXXXXoo..                  ",
"                    XXooOOOOOOOOOOOOXXOOOO..                    ",
"                    XXooOOOOOOOOOOOOXXOOOO..                    ",
"                    ..ooOOOOOOOOOOXXOOOOOO..                    ",
"                    ..ooOOOOOOOOOOXXOOOOOO..                    ",
"                    ..oooooooooooooooooooo..                    ",
"                    ..oooooooooooooooooooo..                    ",
"                      ....................                      ",
"                      ....................                      ",
"                                                                ",
"                                                                ",
"                                                                ",
"                                                                "
};
