/* XPM */
static char *_77a99b73abc41ccfd513890ed26b753tYv2JMPLJHrx8KaO[] = {
/* columns rows colors chars-per-pixel */
"64 64 10 1 ",
"  c None",
". c black",
"X c #143503",
"o c #431C00",
"O c #532300",
"+ c #797800",
"@ c #736F6F",
"# c #E2E000",
"$ c #C0BDBD",
"% c white",
/* pixels */
"                                                                ",
"                                                                ",
"                                                    $$$$$$      ",
"                                                    $$$$$$      ",
"                                                    $$%%$$      ",
"                                                    $$%%$$      ",
"                        ..........                $$%%%%$$$$    ",
"                        ..........                $$%%%%$$$$    ",
"                      ....oooooo....              $$$$%%%%$$    ",
"                      ....oooooo....              $$$$%%%%$$    ",
"                      ....ooOOOO..........          $$$$$$$$    ",
"                      ....ooOOOO..........          $$$$$$$$    ",
"                    ..ooooooooXXoooo..$$$$..                    ",
"                    ..ooooooooXXoooo..$$$$..                    ",
"                    ..ooOOOOOOXXOOoo..@@$$..                    ",
"                    ..ooOOOOOOXXOOoo..@@$$..                    ",
"                  ..ooooOO++OOOOOOoo..@@@@$$..                  ",
"                  ..ooooOO++OOOOOOoo..@@@@$$..                  ",
"                  ..ooOOOO##OOOOOOoo..@@@@$$..                  ",
"                  ..ooOOOO##OOOOOOoo..@@@@$$..                  ",
"                  ..ooOOOO##OOOOOOoo..@@@@@@$$..                ",
"                  ..ooOOOO##OOOOOOoo..@@@@@@$$..                ",
"                ..oo++##########++oo..@@@@@@$$..                ",
"                ..oo++##########++oo..@@@@@@$$..                ",
"                ..ooOOOOOO##OOOOOOoo..@@@@@@$$..                ",
"                ..ooOOOOOO##OOOOOOoo..@@@@@@$$..                ",
"              ..ooOOOOOOOO##OOOOOOoo..@@@@@@@@$$..              ",
"              ..ooOOOOOOOO##OOOOOOoo..@@@@@@@@$$..              ",
"              ..ooOOOOOOOO##OOOOOOXX..@@@@@@@@$$..              ",
"              ..ooOOOOOOOO##OOOOOOXX..@@@@@@@@$$..              ",
"              ..ooOOOOOOOO##OOOOXXoo..@@@@@@@@$$..              ",
"              ..ooOOOOOOOO##OOOOXXoo..@@@@@@@@$$..              ",
"              ..ooooOOOOOO##OOOOXXoo..@@@@@@$$$$..              ",
"              ..ooooOOOOOO##OOOOXXoo..@@@@@@$$$$..              ",
"                ..ooOOOOOO++OOOOXXoo..@@@@@@$$..                ",
"                ..ooOOOOOO++OOOOXXoo..@@@@@@$$..                ",
"                ..ooOOOOOOOOOOOOXXoo..@@@@@@$$..                ",
"                ..ooOOOOOOOOOOOOXXoo..@@@@@@$$..                ",
"                ..ooOOOOOOOOOOOOXXoo..@@@@@@$$..                ",
"                ..ooOOOOOOOOOOOOXXoo..@@@@@@$$..                ",
"                ..ooOOOOOOOOOOOOXXoo..@@@@@@$$..                ",
"                ..ooOOOOOOOOOOOOXXoo..@@@@@@$$..                ",
"                  ..ooOOOOOOOOXXXXoo..@@@@$$..                  ",
"                  ..ooOOOOOOOOXXXXoo..@@@@$$..                  ",
"                  ..ooXXOOOOOOOOOOoo..@@@@$$..                  ",
"                  ..ooXXOOOOOOOOOOoo..@@@@$$..                  ",
"                  ..ooXXOOOOOOOOOOoo..@@@@$$..                  ",
"                  ..ooXXOOOOOOOOOOoo..@@@@$$..                  ",
"                  ..ooXXOOOOOOOOOOoo..@@@@$$..                  ",
"                  ..ooXXOOOOOOOOOOoo..@@@@$$..                  ",
"                  ..XXXXOOOOOOOOOOoo..@@@@$$..                  ",
"                  ..XXXXOOOOOOOOOOoo..@@@@$$..                  ",
"                    ..ooOOOOOOOOOOoo..@@$$..                    ",
"                    ..ooOOOOOOOOOOoo..@@$$..                    ",
"                    ..ooOOOOOOoooo....@@$$..                    ",
"                    ..ooOOOOOOoooo....@@$$..                    ",
"                    ..oooooooo......@@$$$$..                    ",
"                    ..oooooooo......@@$$$$..                    ",
"                      ....................                      ",
"                      ....................                      ",
"                                                                ",
"                                                                ",
"                                                                ",
"                                                                "
};
