/* XPM */
static char *c80fb9baf72d4d4bd6ea4ab85b769f8eOqOPUVdkzjaWjqWN[] = {
/* columns rows colors chars-per-pixel */
"64 64 7 1 ",
"  c None",
". c black",
"X c #910000",
"o c red",
"O c #FFC500",
"+ c gray70",
"@ c white",
/* pixels */
"                                                                ",
"                                                                ",
"                                                                ",
"                                                                ",
"                                                                ",
"                                                                ",
"                        @@@@@@@@@@@@                            ",
"                        @@@@@@@@@@@@                            ",
"                        @@@@@@@@@@@@@@                          ",
"                        @@@@@@@@@@@@@@                          ",
"                      @@@@@@@@@@@@@@@@@@                        ",
"                      @@@@@@@@@@@@@@@@@@                        ",
"                      @@@@@@@@@@++++++                          ",
"                      @@@@@@@@@@++++++                          ",
"                      @@@@@@@@@@oo++++                          ",
"                      @@@@@@@@@@oo++++                          ",
"                    @@@@@@@@@@@@++++++                          ",
"                    @@@@@@@@@@@@++++++                          ",
"                    @@@@@@@@@@@@++++++                          ",
"                    @@@@@@@@@@@@++++++                          ",
"                    @@@@@@@@@@@@++++                            ",
"                    @@@@@@@@@@@@++++                            ",
"                  @@@@@@@@@@@@OOOO                              ",
"                  @@@@@@@@@@@@OOOO                              ",
"                @@@@OO@@@@@@@@XXXXOOOO                          ",
"                @@@@OO@@@@@@@@XXXXOOOO                          ",
"                @@OOOO@@@@@@@@XXXXXXOO                          ",
"                @@OOOO@@@@@@@@XXXXXXOO                          ",
"              @@OOOOXX@@@@@@@@@@XXXXOO                          ",
"              @@OOOOXX@@@@@@@@@@XXXXOO                          ",
"            @@@@XXXX@@@@@@@@@@@@XXXXOO                          ",
"            @@@@XXXX@@@@@@@@@@@@XXXXOO                          ",
"          @@@@OOXX@@@@XX@@XXXX@@XXXXOO                          ",
"          @@@@OOXX@@@@XX@@XXXX@@XXXXOO                          ",
"          @@  OO@@@@XXXX@@XXXX@@@@XXOO                          ",
"          @@  OO@@@@XXXX@@XXXX@@@@XXOO                          ",
"        @@  OOOO@@XXXX@@XXXXXXXX@@XXOO                          ",
"        @@  OOOO@@XXXX@@XXXXXXXX@@XXOO                          ",
"        @@  OOXX@@XXXX@@XXXXXXXXXXXXOO@@                        ",
"        @@  OOXX@@XXXX@@XXXXXXXXXXXXOO@@                        ",
"      @@@@  OOXX@@XXXX@@XXXXXXXXXXXXOO@@                        ",
"      @@@@  OOXX@@XXXX@@XXXXXXXXXXXXOO@@                        ",
"      @@  OOXX@@XXXXXX@@XXXXXXXXXXXXOO@@                        ",
"      @@  OOXX@@XXXXXX@@XXXXXXXXXXXXOO@@                        ",
"      @@  OO@@@@XXXXXXXX@@XXXXXXXXXXOO@@                        ",
"      @@  OO@@@@XXXXXXXX@@XXXXXXXXXXOO@@                        ",
"    @@  OO@@@@XXXXXXXXXX@@XXXXXXXXOOOO@@                        ",
"    @@  OO@@@@XXXXXXXXXX@@XXXXXXXXOOOO@@                        ",
"    @@OO@@@@XXXXXXXXXXXX@@XXXXXXXXOO  @@@@                      ",
"    @@OO@@@@XXXXXXXXXXXX@@XXXXXXXXOO  @@@@                      ",
"      OOXXXXXXXXXXXXXXXX@@XXXXXXXXOO    @@@@                    ",
"      OOXXXXXXXXXXXXXXXX@@XXXXXXXXOO    @@@@                    ",
"      OOXXXXXXXXXXXXXXXX@@XXXXXXOOOO      @@@@                  ",
"      OOXXXXXXXXXXXXXXXX@@XXXXXXOOOO      @@@@                  ",
"      OOXXXXXXXXXXXXXX@@@@XXXXXXOOOO        @@                  ",
"      OOXXXXXXXXXXXXXX@@@@XXXXXXOOOO        @@                  ",
"      OOXXXXXXXXXXXXXXXXXXXXXXOOOOOO                            ",
"      OOXXXXXXXXXXXXXXXXXXXXXXOOOOOO                            ",
"    OOXXXXXXXXXXXXXXXXXXXXXXXXOOOO..                            ",
"    OOXXXXXXXXXXXXXXXXXXXXXXXXOOOO..                            ",
"  OOXXXXXXXXXXXXXXXXXXXXXXOOOOOOOO..                            ",
"  OOXXXXXXXXXXXXXXXXXXXXXXOOOOOOOO..                            ",
"  OOOOOOOOOOOOOOOOOOOOOOOOOOOOOO....                            ",
"  OOOOOOOOOOOOOOOOOOOOOOOOOOOOOO....                            "
};
