/* XPM */
static char *_583573e833e4f3aad3a12d9fba921442WSb1G4jhWROS6Ce[] = {
/* columns rows colors chars-per-pixel */
"64 64 6 1 ",
"  c None",
". c black",
"X c #0C010E",
"o c #681579",
"O c red",
"+ c white",
/* pixels */
"                                                                ",
"                                                                ",
"                                                                ",
"                                                                ",
"                              ..................                ",
"                              ..................                ",
"                                    ......oooo....              ",
"                                    ......oooo....              ",
"      ..........                        ..oooooo......          ",
"      ..........                        ..oooooo......          ",
"    ....oooooo........              ........oooooooo....        ",
"    ....oooooo........              ........oooooooo....        ",
"  ....oooooooo............          ..    ......oooooo..        ",
"  ....oooooooo............          ..    ......oooooo..        ",
"....oooooooo....oooooooo....              ......oooooo..        ",
"....oooooooo....oooooooo....              ......oooooo..        ",
"..oooooooo....oooooooo........          ......oo..oooo....      ",
"..oooooooo....oooooooo........          ......oo..oooo....      ",
"..oooooooo..oooooooo....oooo..................oo..oooooo..      ",
"..oooooooo..oooooooo....oooo..................oo..oooooo..      ",
"............oooooo..oooooooo....oooooooooooo....oo..oooo....    ",
"............oooooo..oooooooo....oooooooooooo....oo..oooo....    ",
"..    ....oooooo....oooooo..oooooooooooooooooooo....oooooo..    ",
"..    ....oooooo....oooooo..oooooooooooooooooooo....oooooo..    ",
"      ..oooooooo..oooooo..oooooooooooooooooooooooo..oooooo..    ",
"      ..oooooooo..oooooo..oooooooooooooooooooooooo..oooooo..    ",
"      ..............oo..ooooooooooXXXXooooooXXXXoooo..oooo..    ",
"      ..............oo..ooooooooooXXXXooooooXXXXoooo..oooo..    ",
"      ..      ..........ooooooooooXXOOooooooXXOOoooo......      ",
"      ..      ..........ooooooooooXXOOooooooXXOOoooo......      ",
"              ..      ..oooooooooooooooooooooooooooo....        ",
"              ..      ..oooooooooooooooooooooooooooo....        ",
"                      ..oooooooooooooooooooooooooooo..          ",
"                      ..oooooooooooooooooooooooooooo..          ",
"                      ..oooooooooooooo++++++++oooooo..          ",
"                      ..oooooooooooooo++++++++oooooo..          ",
"                        ..oooooooooooo++oooo++oooo..            ",
"                        ..oooooooooooo++oooo++oooo..            ",
"                          ..oooooooooooooooooooo..              ",
"                          ..oooooooooooooooooooo..              ",
"                            ....oooooooooooo....                ",
"                            ....oooooooooooo....                ",
"                                ............                    ",
"                                ............                    ",
"                                                                ",
"                                                                ",
"                                                                ",
"                                                                ",
"                                                                ",
"                                                                ",
"                                                                ",
"                                                                ",
"                                                                ",
"                                                                ",
"                                                                ",
"                                                                ",
"                                                                ",
"                                                                ",
"                                                                ",
"                                                                ",
"                                                                ",
"                                                                ",
"                                                                ",
"                                                                "
};
