/* XPM */
static char *ea243d17e2994e86f2f8afa33a72a858g97RsCPzZxEwomT9[] = {
/* columns rows colors chars-per-pixel */
"64 64 6 1 ",
"  c black",
". c black",
"X c #0C010E",
"o c #681579",
"O c red",
"+ c white",
/* pixels */
"                                                                ",
"                                                                ",
"                                                                ",
"                                                                ",
"                                                                ",
"                                                                ",
"                                                                ",
"                                                                ",
"                                                                ",
"                                                                ",
"                                                                ",
"                                                                ",
"                                                                ",
"                                                                ",
"                                                                ",
"                                                                ",
"                                ............                    ",
"                                ............                    ",
"                            ....oooooooooooo..XX                ",
"                            ....oooooooooooo..XX                ",
"                          ..oooooooooooooooooooo..              ",
"                          ..oooooooooooooooooooo..              ",
"                        ..oooooooooooooooooooooooo..            ",
"                        ..oooooooooooooooooooooooo..            ",
"                      ..oooooooooo....oooooo....ooooXX          ",
"                      ..oooooooooo....oooooo....ooooXX          ",
"                      XXoooooooooo..OOoooooo..OOoooo..          ",
"                      XXoooooooooo..OOoooooo..OOoooo..          ",
"                    XXoooooooooooooooooooooooooooooo..          ",
"                    XXoooooooooooooooooooooooooooooo..          ",
"                    XXoooooooooooooooooooooooooooooo..          ",
"                    XXoooooooooooooooooooooooooooooo..          ",
"                    ....oooooooooooooo++++++++oooooo..          ",
"                    ....oooooooooooooo++++++++oooooo..          ",
"                      ..oooooooooooooo++oooo++oooo....          ",
"                      ..oooooooooooooo++oooo++oooo....          ",
"                      ..oooooooo..oooooooooooooo..oo..          ",
"                      ..oooooooo..oooooooooooooo..oo..          ",
"                    ......oooo....oooooooooo......oo....        ",
"                    ......oooo....oooooooooo......oo....        ",
"                    ..oo....oo..................oooooo..        ",
"                    ..oo....oo..................oooooo..        ",
"                    ....oo......          ..oo....oooo..        ",
"                    ....oo......          ..oo....oooo..        ",
"                  ..oo..oooo....            ......oooo..        ",
"                  ..oo..oooo....            ......oooo..        ",
"                  ..oo....oo....              ..oo..oo..        ",
"                  ..oo....oo....              ..oo..oo..        ",
"                ..oooooo..oooo..              ..oooo....        ",
"                ..oooooo..oooo..              ..oooo....        ",
"              ......oooo....oo..              ..oooo....        ",
"              ......oooo....oo..              ..oooo....        ",
"              ..oo....oooo..oo..            ..oo..oo....        ",
"              ..oo....oooo..oo..            ..oo..oo....        ",
"            ....oooo....oo......            ..oooo......        ",
"            ....oooo....oo......            ..oooo......        ",
"          ....oooooooooo......            ..oooooo......        ",
"          ....oooooooooo......            ..oooooo......        ",
"      ......oooooooo........            ....oooooo......        ",
"      ......oooooooo........            ....oooooo......        ",
"      ................                  ..............          ",
"      ................                  ..............          ",
"                                                                ",
"                                                                "
};
