/* XPM */
static char *ba33ada4981e4aa1dfac2b1c26b56a8elor47V95TJZvSVTg[] = {
/* columns rows colors chars-per-pixel */
"64 64 3 1 ",
"  c None",
". c #FFE700",
"X c #F5EB90",
/* pixels */
"                                                                ",
"                                                                ",
"                                                                ",
"                                                                ",
"                      ..                                        ",
"                      ..                                        ",
"        ..                            ......................    ",
"        ..                            ......................    ",
"                                                                ",
"                                                                ",
"              ......................                            ",
"              ......................                            ",
"        ..............................                          ",
"        ..............................                          ",
"      ..XXXX....XXXXXXXXXXXXXXXX............                    ",
"      ..XXXX....XXXXXXXXXXXXXXXX............                    ",
"    ..XXXX....XXXXXXXXXXXXXXXXXXXXXX............                ",
"    ..XXXX....XXXXXXXXXXXXXXXXXXXXXX............                ",
"  ..XX..XXXXXXXXXXXXXXXXXXXXXXXXXXXXXXXXXX............          ",
"  ..XX..XXXXXXXXXXXXXXXXXXXXXXXXXXXXXXXXXX............          ",
"  ......XXXXXXXXXXXXXXXXXXXXXXXXXXXXXXXXXX....                  ",
"  ......XXXXXXXXXXXXXXXXXXXXXXXXXXXXXXXXXX....                  ",
"  ........XXXXXXXXXXXXXXXXXXXXXXXX..XXXXXX......................",
"  ........XXXXXXXXXXXXXXXXXXXXXXXX..XXXXXX......................",
"  ....XX........XXXXXXXXXXXXXXXX....XXXXXX..                    ",
"  ....XX........XXXXXXXXXXXXXXXX....XXXXXX..                    ",
"    ..XX....XXXX........XXXXXX....XXXXXX..                      ",
"    ..XX....XXXX........XXXXXX....XXXXXX..                      ",
"      ..XXXX....................XXXXXX..........                ",
"      ..XXXX....................XXXXXX..........                ",
"        ......XXXXXXXXXXXXXXXXXX......                          ",
"        ......XXXXXXXXXXXXXXXXXX......                          ",
"              ..........................................        ",
"              ..........................................        ",
"                                                                ",
"                                                                ",
"                                                                ",
"                                                                ",
"              ..                                                ",
"              ..                                                ",
"                                                                ",
"                                                                ",
"                                                                ",
"                                                                ",
"                                                                ",
"                                                                ",
"                                              ..                ",
"                                              ..                ",
"                                                                ",
"                                                                ",
"                                                                ",
"                                                                ",
"                                                                ",
"                                                                ",
"                                                                ",
"                                                                ",
"                                                                ",
"                                                                ",
"                                                                ",
"                                                                ",
"                                                                ",
"                                                                ",
"                                                                ",
"                                                                "
};
