/* XPM */
static char *_5ea79b9f6204c93c8c25ba3e8658e43Shiy3mQlsxflOoNg[] = {
/* columns rows colors chars-per-pixel */
"64 64 3 1 ",
"  c None",
". c #FFE700",
"X c #F5EB90",
/* pixels */
"                                                                ",
"                                                                ",
"                                                                ",
"                                                                ",
"                                        ..                      ",
"                                        ..                      ",
"    ......................                            ..        ",
"    ......................                            ..        ",
"                                                                ",
"                                                                ",
"                            ......................              ",
"                            ......................              ",
"                          ..............................        ",
"                          ..............................        ",
"                    ............XXXXXXXXXXXXXXXX....XXXX..      ",
"                    ............XXXXXXXXXXXXXXXX....XXXX..      ",
"                ............XXXXXXXXXXXXXXXXXXXXXX....XXXX..    ",
"                ............XXXXXXXXXXXXXXXXXXXXXX....XXXX..    ",
"          ............XXXXXXXXXXXXXXXXXXXXXXXXXXXXXXXXXX..XX..  ",
"          ............XXXXXXXXXXXXXXXXXXXXXXXXXXXXXXXXXX..XX..  ",
"                  ....XXXXXXXXXXXXXXXXXXXXXXXXXXXXXXXXXX......  ",
"                  ....XXXXXXXXXXXXXXXXXXXXXXXXXXXXXXXXXX......  ",
"......................XXXXXX..XXXXXXXXXXXXXXXXXXXXXXXX........  ",
"......................XXXXXX..XXXXXXXXXXXXXXXXXXXXXXXX........  ",
"                    ..XXXXXX....XXXXXXXXXXXXXXXX........XX....  ",
"                    ..XXXXXX....XXXXXXXXXXXXXXXX........XX....  ",
"                      ..XXXXXX....XXXXXX........XXXX....XX..    ",
"                      ..XXXXXX....XXXXXX........XXXX....XX..    ",
"                ..........XXXXXX....................XXXX..      ",
"                ..........XXXXXX....................XXXX..      ",
"                          ......XXXXXXXXXXXXXXXXXX......        ",
"                          ......XXXXXXXXXXXXXXXXXX......        ",
"        ..........................................              ",
"        ..........................................              ",
"                                                                ",
"                                                                ",
"                                                                ",
"                                                                ",
"                                                ..              ",
"                                                ..              ",
"                                                                ",
"                                                                ",
"                                                                ",
"                                                                ",
"                                                                ",
"                                                                ",
"                ..                                              ",
"                ..                                              ",
"                                                                ",
"                                                                ",
"                                                                ",
"                                                                ",
"                                                                ",
"                                                                ",
"                                                                ",
"                                                                ",
"                                                                ",
"                                                                ",
"                                                                ",
"                                                                ",
"                                                                ",
"                                                                ",
"                                                                ",
"                                                                "
};
