/* XPM */
static char *_087516888084db4974229832adff083E419Bs9qQZK9ggIW[] = {
/* columns rows colors chars-per-pixel */
"64 64 5 1 ",
"  c None",
". c #6E0000",
"X c #E40000",
"o c #FF8D00",
"O c #0085D5",
/* pixels */
"                                                                ",
"                                                                ",
"                                                                ",
"                                                                ",
"                                                                ",
"                                                                ",
"                                                                ",
"                                                                ",
"                                                                ",
"                                                                ",
"                          oooooooooooo                          ",
"                          oooooooooooo                          ",
"                          oooooooooooo                          ",
"                          oooooooooooo                          ",
"                          OOooooooooOO                          ",
"                          OOooooooooOO                          ",
"                          OOXXXXXX..OO                          ",
"                          OOXXXXXX..OO                          ",
"                          OOXXXXXX..OO                          ",
"                          OOXXXXXX..OO                          ",
"                          OOXXXXXX..OO                          ",
"                          OOXXXXXX..OO                          ",
"                          OOXXXXXX..OO                          ",
"                          OOXXXXXX..OO                          ",
"                          OOXXXXXX..OO                          ",
"                          OOXXXXXX..OO                          ",
"                          OOXXXXXX..OO                          ",
"                          OOXXXXXX..OO                          ",
"                          OOXXXXXX..OO                          ",
"                          OOXXXXXX..OO                          ",
"                      OOOOXXXXXXXX....OOOO                      ",
"                      OOOOXXXXXXXX....OOOO                      ",
"                  OOOOXXXXXXXXXXXXXX......OOOO                  ",
"                  OOOOXXXXXXXXXXXXXX......OOOO                  ",
"                OOXXXXXXXXXXXXXXXXXXXXXXXXXXXXOO                ",
"                OOXXXXXXXXXXXXXXXXXXXXXXXXXXXXOO                ",
"                OOXXXXXXXXXXXXXXXXXXXXXXXXXXXXOO                ",
"                OOXXXXXXXXXXXXXXXXXXXXXXXXXXXXOO                ",
"              OOXXXXXXXXXXXXXXXXXXXXXXXXXXXXXXXXOO              ",
"              OOXXXXXXXXXXXXXXXXXXXXXXXXXXXXXXXXOO              ",
"              OOXXXXXXXXXXXXXXXXXXXXXXXXXXXX..XXOO              ",
"              OOXXXXXXXXXXXXXXXXXXXXXXXXXXXX..XXOO              ",
"              OOXXXXXXXXXXXXXXXXXXXXXXXXXXXX..XXOO              ",
"              OOXXXXXXXXXXXXXXXXXXXXXXXXXXXX..XXOO              ",
"              OOXXXXXXXXXXXXXXXXXXXXXXXXXX....XXOO              ",
"              OOXXXXXXXXXXXXXXXXXXXXXXXXXX....XXOO              ",
"              OOXXXXXXXXXXXXXXXXXXXXXXXX....XXXXOO              ",
"              OOXXXXXXXXXXXXXXXXXXXXXXXX....XXXXOO              ",
"                OOXXXXXXXXXXXXXXXXXXXX....XXXXOO                ",
"                OOXXXXXXXXXXXXXXXXXXXX....XXXXOO                ",
"                OOXXXXXXXXXXXXXXXXXX....XXXXXXOO                ",
"                OOXXXXXXXXXXXXXXXXXX....XXXXXXOO                ",
"                  OOOOXXXXXXXXXX......XXXXOOOO                  ",
"                  OOOOXXXXXXXXXX......XXXXOOOO                  ",
"                      OOOOXXXXXXXXXXXXOOOO                      ",
"                      OOOOXXXXXXXXXXXXOOOO                      ",
"                          OOOOOOOOOOOO                          ",
"                          OOOOOOOOOOOO                          ",
"                                                                ",
"                                                                ",
"                                                                ",
"                                                                ",
"                                                                ",
"                                                                "
};
