/* XPM */
static char *_77c0ecb749d43b0a73694525c9e6e544aVVvkp6x3CAwa1L[] = {
/* columns rows colors chars-per-pixel */
"64 64 8 1 ",
"  c None",
". c black",
"X c #860000",
"o c #FC0000",
"O c #FFB229",
"+ c #FFD30F",
"@ c gray55",
"# c white",
/* pixels */
"                                                                ",
"                                                                ",
"                                                ++              ",
"                                                ++              ",
"                        @@@@@@@@@@@@@@@@                        ",
"                        @@@@@@@@@@@@@@@@                        ",
"                        @@@@..@@..@@..@@    ++      ####    ++  ",
"                        @@@@..@@..@@..@@    ++      ####    ++  ",
"                        @@@@..@@..@@..@@            ####        ",
"                        @@@@..@@..@@..@@            ####        ",
"                        @@@@..@@..@@..@@            ####        ",
"                        @@@@..@@..@@..@@            ####        ",
"                        @@@@..@@..@@..@@            ####        ",
"                        @@@@..@@..@@..@@            ####        ",
"                        @@@@..@@..@@..@@            ####        ",
"                        @@@@..@@..@@..@@            ####        ",
"                        @@@@@@@@@@@@@@@@            ####  ++    ",
"                        @@@@@@@@@@@@@@@@            ####  ++    ",
"                  ######@@@@@@@@@@@@@@@@      ++    ####        ",
"                  ######@@@@@@@@@@@@@@@@      ++    ####        ",
"                ##XXXXXX@@@@..........@@####        ####        ",
"                ##XXXXXX@@@@..........@@####        ####        ",
"                ##XXXXXX@@@@@@@@@@@@@@@@XX##        ####        ",
"                ##XXXXXX@@@@@@@@@@@@@@@@XX##        ####        ",
"                ##XXXXXXXX@@@@@@@@@@@@@@@@XX    OO  ####  OO    ",
"                ##XXXXXXXX@@@@@@@@@@@@@@@@XX    OO  ####  OO    ",
"                ##XXXXXX@@@@@@@@@@@@@@@@@@XX      OOOOOOOO      ",
"                ##XXXXXX@@@@@@@@@@@@@@@@@@XX      OOOOOOOO      ",
"                ##XXXXXX@@@@@@@@@@@@@@@@@@XX      @@@@@@@@      ",
"                ##XXXXXX@@@@@@@@@@@@@@@@@@XX      @@@@@@@@      ",
"                ##XXXXXX@@@@@@@@@@@@@@@@@@@@@@@@@@@@@@@@@@      ",
"                ##XXXXXX@@@@@@@@@@@@@@@@@@@@@@@@@@@@@@@@@@      ",
"                ##XXXX@@@@@@@@@@@@@@@@@@@@@@@@@@@@@@@@@@        ",
"                ##XXXX@@@@@@@@@@@@@@@@@@@@@@@@@@@@@@@@@@        ",
"                ##XXXX@@@@@@@@@@@@@@@@@@@@@@@@@@@@@@          ++",
"                ##XXXX@@@@@@@@@@@@@@@@@@@@@@@@@@@@@@          ++",
"                ##XXXXOOOOOOOOOOOOOOOO@@@@@@@@@@@@              ",
"                ##XXXXOOOOOOOOOOOOOOOO@@@@@@@@@@@@              ",
"                ##XXOO################OO@@@@              ++    ",
"                ##XXOO################OO@@@@              ++    ",
"                ##XXOO######oooo######OO@@        ++            ",
"                ##XXOO######oooo######OO@@        ++            ",
"                ##XXOO######oooo######OO@@                      ",
"                ##XXOO######oooo######OO@@                      ",
"                ##XXOO##oooooooooooo##OO@@                      ",
"                ##XXOO##oooooooooooo##OO@@                      ",
"                ##XXOO##oooooooooooo##OO@@                      ",
"                ##XXOO##oooooooooooo##OO@@                      ",
"                ##XXXXOO####oooo####OO@@@@                      ",
"                ##XXXXOO####oooo####OO@@@@                      ",
"                ##XXXXOO####oooo####OO@@@@                      ",
"                ##XXXXOO####oooo####OO@@@@                      ",
"                ##XXXXXXOO########OO@@@@@@                      ",
"                ##XXXXXXOO########OO@@@@@@                      ",
"                ##XXXXXX@@OO####OO@@@@@@@@                      ",
"                ##XXXXXX@@OO####OO@@@@@@@@                      ",
"                ##XXXXXX@@OO####OO@@@@@@@@                      ",
"                ##XXXXXX@@OO####OO@@@@@@@@                      ",
"                ##XXXXXX@@OO####OO@@@@@@@@                      ",
"                ##XXXXXX@@OO####OO@@@@@@@@                      ",
"                ##XXXXXX@@@@OOOO@@@@@@@@@@                      ",
"                ##XXXXXX@@@@OOOO@@@@@@@@@@                      ",
"                ##XXXXXX@@@@OOOO@@@@@@@@@@                      ",
"                ##XXXXXX@@@@OOOO@@@@@@@@@@                      "
};
