/* XPM */
static char *_39f0cc561c34aa8d1db338995eb02ecbLqmOPjWmwGfzjwq[] = {
/* columns rows colors chars-per-pixel */
"64 64 8 1 ",
"  c None",
". c black",
"X c #860000",
"o c #FC0000",
"O c #FFB229",
"+ c #FFD30F",
"@ c gray55",
"# c white",
/* pixels */
"                                                                ",
"                                                                ",
"              ++                                                ",
"              ++                                                ",
"                        @@@@@@@@@@@@@@@@                        ",
"                        @@@@@@@@@@@@@@@@                        ",
"  ++    ####      ++    @@..@@..@@..@@@@                        ",
"  ++    ####      ++    @@..@@..@@..@@@@                        ",
"        ####            @@..@@..@@..@@@@                        ",
"        ####            @@..@@..@@..@@@@                        ",
"        ####            @@..@@..@@..@@@@                        ",
"        ####            @@..@@..@@..@@@@                        ",
"        ####            @@..@@..@@..@@@@                        ",
"        ####            @@..@@..@@..@@@@                        ",
"        ####            @@..@@..@@..@@@@                        ",
"        ####            @@..@@..@@..@@@@                        ",
"    ++  ####            @@@@@@@@@@@@@@@@                        ",
"    ++  ####            @@@@@@@@@@@@@@@@                        ",
"        ####    ++      @@@@@@@@@@@@@@@@######                  ",
"        ####    ++      @@@@@@@@@@@@@@@@######                  ",
"        ####        ####@@..........@@@@XXXXXX##                ",
"        ####        ####@@..........@@@@XXXXXX##                ",
"        ####        ##XX@@@@@@@@@@@@@@@@XXXXXX##                ",
"        ####        ##XX@@@@@@@@@@@@@@@@XXXXXX##                ",
"    OO  ####  OO    XX@@@@@@@@@@@@@@@@XXXXXXXX##                ",
"    OO  ####  OO    XX@@@@@@@@@@@@@@@@XXXXXXXX##                ",
"      OOOOOOOO      XX@@@@@@@@@@@@@@@@@@XXXXXX##                ",
"      OOOOOOOO      XX@@@@@@@@@@@@@@@@@@XXXXXX##                ",
"      @@@@@@@@      XX@@@@@@@@@@@@@@@@@@XXXXXX##                ",
"      @@@@@@@@      XX@@@@@@@@@@@@@@@@@@XXXXXX##                ",
"      @@@@@@@@@@@@@@@@@@@@@@@@@@@@@@@@@@XXXXXX##                ",
"      @@@@@@@@@@@@@@@@@@@@@@@@@@@@@@@@@@XXXXXX##                ",
"        @@@@@@@@@@@@@@@@@@@@@@@@@@@@@@@@@@XXXX##                ",
"        @@@@@@@@@@@@@@@@@@@@@@@@@@@@@@@@@@XXXX##                ",
"++          @@@@@@@@@@@@@@@@@@@@@@@@@@@@@@XXXX##                ",
"++          @@@@@@@@@@@@@@@@@@@@@@@@@@@@@@XXXX##                ",
"              @@@@@@@@@@@@OOOOOOOOOOOOOOOOXXXX##                ",
"              @@@@@@@@@@@@OOOOOOOOOOOOOOOOXXXX##                ",
"    ++              @@@@OO################OOXX##                ",
"    ++              @@@@OO################OOXX##                ",
"            ++        @@OO######oooo######OOXX##                ",
"            ++        @@OO######oooo######OOXX##                ",
"                      @@OO######oooo######OOXX##                ",
"                      @@OO######oooo######OOXX##                ",
"                      @@OO##oooooooooooo##OOXX##                ",
"                      @@OO##oooooooooooo##OOXX##                ",
"                      @@OO##oooooooooooo##OOXX##                ",
"                      @@OO##oooooooooooo##OOXX##                ",
"                      @@@@OO####oooo####OOXXXX##                ",
"                      @@@@OO####oooo####OOXXXX##                ",
"                      @@@@OO####oooo####OOXXXX##                ",
"                      @@@@OO####oooo####OOXXXX##                ",
"                      @@@@@@OO########OOXXXXXX##                ",
"                      @@@@@@OO########OOXXXXXX##                ",
"                      @@@@@@@@OO####OO@@XXXXXX##                ",
"                      @@@@@@@@OO####OO@@XXXXXX##                ",
"                      @@@@@@@@OO####OO@@XXXXXX##                ",
"                      @@@@@@@@OO####OO@@XXXXXX##                ",
"                      @@@@@@@@OO####OO@@XXXXXX##                ",
"                      @@@@@@@@OO####OO@@XXXXXX##                ",
"                      @@@@@@@@@@OOOO@@@@XXXXXX##                ",
"                      @@@@@@@@@@OOOO@@@@XXXXXX##                ",
"                      @@@@@@@@@@OOOO@@@@XXXXXX##                ",
"                      @@@@@@@@@@OOOO@@@@XXXXXX##                "
};
