/* XPM */
static char *_dbbb029e4ca4902825d58d046180c759vM9mkSQq9a0PgqN[] = {
/* columns rows colors chars-per-pixel */
"64 64 7 1 ",
"  c None",
". c black",
"X c #910000",
"o c red",
"O c #FFC500",
"+ c gray70",
"@ c white",
/* pixels */
"                                                                ",
"                                                                ",
"                                                                ",
"                                                                ",
"                                                                ",
"                                                                ",
"                            @@@@@@@@@@@@                        ",
"                            @@@@@@@@@@@@                        ",
"                          @@@@@@@@@@@@@@                        ",
"                          @@@@@@@@@@@@@@                        ",
"                        @@@@@@@@@@@@@@@@@@                      ",
"                        @@@@@@@@@@@@@@@@@@                      ",
"                          ++++++@@@@@@@@@@                      ",
"                          ++++++@@@@@@@@@@                      ",
"                          ++++oo@@@@@@@@@@                      ",
"                          ++++oo@@@@@@@@@@                      ",
"                          ++++++@@@@@@@@@@@@                    ",
"                          ++++++@@@@@@@@@@@@                    ",
"                          ++++++@@@@@@@@@@@@                    ",
"                          ++++++@@@@@@@@@@@@                    ",
"                            ++++@@@@@@@@@@@@                    ",
"                            ++++@@@@@@@@@@@@                    ",
"                              OOOO@@@@@@@@@@@@                  ",
"                              OOOO@@@@@@@@@@@@                  ",
"                          OOOOXXXX@@@@@@@@OO@@@@                ",
"                          OOOOXXXX@@@@@@@@OO@@@@                ",
"                          OOXXXXXX@@@@@@@@OOOO@@                ",
"                          OOXXXXXX@@@@@@@@OOOO@@                ",
"                          OOXXXX@@@@@@@@@@XXOOOO@@              ",
"                          OOXXXX@@@@@@@@@@XXOOOO@@              ",
"                          OOXXXX@@@@@@@@@@@@XXXX@@@@            ",
"                          OOXXXX@@@@@@@@@@@@XXXX@@@@            ",
"                          OOXXXX@@XXXX@@XX@@@@XXOO@@@@          ",
"                          OOXXXX@@XXXX@@XX@@@@XXOO@@@@          ",
"                          OOXX@@@@XXXX@@XXXX@@@@OO  @@          ",
"                          OOXX@@@@XXXX@@XXXX@@@@OO  @@          ",
"                          OOXX@@XXXXXXXX@@XXXX@@OOOO  @@        ",
"                          OOXX@@XXXXXXXX@@XXXX@@OOOO  @@        ",
"                        @@OOXXXXXXXXXXXX@@XXXX@@XXOO  @@        ",
"                        @@OOXXXXXXXXXXXX@@XXXX@@XXOO  @@        ",
"                        @@OOXXXXXXXXXXXX@@XXXX@@XXOO  @@@@      ",
"                        @@OOXXXXXXXXXXXX@@XXXX@@XXOO  @@@@      ",
"                        @@OOXXXXXXXXXXXX@@XXXXXX@@XXOO  @@      ",
"                        @@OOXXXXXXXXXXXX@@XXXXXX@@XXOO  @@      ",
"                        @@OOXXXXXXXXXX@@XXXXXXXX@@@@OO  @@      ",
"                        @@OOXXXXXXXXXX@@XXXXXXXX@@@@OO  @@      ",
"                        @@OOOOXXXXXXXX@@XXXXXXXXXX@@@@OO  @@    ",
"                        @@OOOOXXXXXXXX@@XXXXXXXXXX@@@@OO  @@    ",
"                      @@@@  OOXXXXXXXX@@XXXXXXXXXXXX@@@@OO@@    ",
"                      @@@@  OOXXXXXXXX@@XXXXXXXXXXXX@@@@OO@@    ",
"                    @@@@    OOXXXXXXXX@@XXXXXXXXXXXXXXXXOO      ",
"                    @@@@    OOXXXXXXXX@@XXXXXXXXXXXXXXXXOO      ",
"                  @@@@      OOOOXXXXXX@@XXXXXXXXXXXXXXXXOO      ",
"                  @@@@      OOOOXXXXXX@@XXXXXXXXXXXXXXXXOO      ",
"                  @@        OOOOXXXXXX@@@@XXXXXXXXXXXXXXOO      ",
"                  @@        OOOOXXXXXX@@@@XXXXXXXXXXXXXXOO      ",
"                            OOOOOOXXXXXXXXXXXXXXXXXXXXXXOO      ",
"                            OOOOOOXXXXXXXXXXXXXXXXXXXXXXOO      ",
"                            ..OOOOXXXXXXXXXXXXXXXXXXXXXXXXOO    ",
"                            ..OOOOXXXXXXXXXXXXXXXXXXXXXXXXOO    ",
"                            ..OOOOOOOOXXXXXXXXXXXXXXXXXXXXXXOO  ",
"                            ..OOOOOOOOXXXXXXXXXXXXXXXXXXXXXXOO  ",
"                            ....OOOOOOOOOOOOOOOOOOOOOOOOOOOOOO  ",
"                            ....OOOOOOOOOOOOOOOOOOOOOOOOOOOOOO  "
};
