/* XPM */
static char *f60ab393937b403dddc7c384ddc40faboD8o1ZYyKNjZePrI[] = {
/* columns rows colors chars-per-pixel */
"64 64 6 1 ",
"  c black",
". c #143503",
"X c #353733",
"o c #1E5700",
"O c #504F4F",
"+ c #5F615E",
/* pixels */
"  OOOOOOOOooOOOOOOOOOOOOOOOOXX..OOOOOOOOXXOOOOOOOO..OOOOOOOOOOOO",
"  OOOOOOOOooOOOOOOOOOOOOOOOOXX..OOOOOOOOXXOOOOOOOO..OOOOOOOOOOOO",
"OOXXOOOOOOooOOOOOOOOOOOOOOOOXX..OOOOOOOOXXOOOOOOOO..OOOOOOOOOOOO",
"OOXXOOOOOOooOOOOOOOOOOOOOOOOXX..OOOOOOOOXXOOOOOOOO..OOOOOOOOOOOO",
"OOXXXXOOOO..ooooOOOOOOOOOOXXXX..OOOOOOXXXXOOOOOOOO..OOOOOOOOOOOO",
"OOXXXXOOOO..ooooOOOOOOOOOOXXXX..OOOOOOXXXXOOOOOOOO..OOOOOOOOOOOO",
"OOOOXXOOOO....ooOOOOOOOOXXXX....OOOOXXXXOOOOOOOOOO..OOOOOOOOOOOO",
"OOOOXXOOOO....ooOOOOOOOOXXXX....OOOOXXXXOOOOOOOOOO..OOOOOOOOOOOO",
"OOOOXXXXOOOO..ooooOOOOXXXX....ooOOXXXXOOOOOOOOOOoo..OOOOOOOOOOOO",
"OOOOXXXXOOOO..ooooOOOOXXXX....ooOOXXXXOOOOOOOOOOoo..OOOOOOOOOOOO",
"OOOOOOXXXXOO....ooOOOOXX....ooooooXXOOooooOOOOOOoo..OOOOOOOOOOOO",
"OOOOOOXXXXOO....ooOOOOXX....ooooooXXOOooooOOOOOOoo..OOOOOOOOOOOO",
"OOOOOO..XXXX....ooooooooXX....OOooooooooOOOOOOOOoo..OOOOOOOOOOOO",
"OOOOOO..XXXX....ooooooooXX....OOooooooooOOOOOOOOoo..OOOOOOOOOOOO",
"OOOO......XXXXXXXXXXXXXXXXXX......OOOOOOOOOOOOoooo..OOOOOOOOOOOO",
"OOOO......XXXXXXXXXXXXXXXXXX......OOOOOOOOOOOOoooo..OOOOOOOOOOOO",
"......OO....................XXXX....OO........oo..OOOOOOOOOO....",
"......OO....................XXXX....OO........oo..OOOOOOOOOO....",
"OOOOOOOOoooooooooooooooooooo..XXXX....XXXXXXXXXXXXXXXXOOOOOO..oo",
"OOOOOOOOoooooooooooooooooooo..XXXX....XXXXXXXXXXXXXXXXOOOOOO..oo",
"OOOOOOooooOOOOOOOOOOOOOOOOOOoo..XXXXXXXX............XXOO....oooo",
"OOOOOOooooOOOOOOOOOOOOOOOOOOoo..XXXXXXXX............XXOO....oooo",
"XXXXOOOOOOOOOOOOOOOOOOOOOOOOoooo..XXXX....ooooOOOOOO..XX..ooooOO",
"XXXXOOOOOOOOOOOOOOOOOOOOOOOOoooo..XXXX....ooooOOOOOO..XX..ooooOO",
"..XXXXOOOOOOOOOOOOOOOOOOOOOOOOoooo..XX..OOOOOOOOOOOO..XXXXXXXXXX",
"..XXXXOOOOOOOOOOOOOOOOOOOOOOOOoooo..XX..OOOOOOOOOOOO..XXXXXXXXXX",
"......XXOOOOOO++OOOOOOOOOOOOOOOOooooXX..OOOOOOOOOOOO............",
"......XXOOOOOO++OOOOOOOOOOOOOOOOooooXX..OOOOOOOOOOOO............",
"OOOO....XXOOOOOOOOOOOOOOOOOOOOOOOOooXX..OOOOOOOOOOOOOOOOOOOOOOOO",
"OOOO....XXOOOOOOOOOOOOOOOOOOOOOOOOooXX..OOOOOOOOOOOOOOOOOOOOOOOO",
"OOOOOO....XXOOOOOOOOOOOOOOOOOOOOOOooXX..OOOOOOOOOOOOOOOOOOOOOOOO",
"OOOOOO....XXOOOOOOOOOOOOOOOOOOOOOOooXX..OOOOOOOOOOOOOOOOOOOOOOOO",
"OOOOOOOO....XXooOOOOOOOOOOOOOOOOOO..XX..OOOOOOOOOOOOOOOOOOOOOOOO",
"OOOOOOOO....XXooOOOOOOOOOOOOOOOOOO..XX..OOOOOOOOOOOOOOOOOOOOOOOO",
"OOOOOOOOXX..XXooooOOOOOOOOOOOOOOOOXXXX..........OOOOOOOOOOOOOOOO",
"OOOOOOOOXX..XXooooOOOOOOOOOOOOOOOOXXXX..........OOOOOOOOOOOOOOOO",
"OOOOOOXXOO..XX..ooooooOOOOOOOOOOXXXX..XXXXXXXX....OOOOOOOOOOOOOO",
"OOOOOOXXOO..XX..ooooooOOOOOOOOOOXXXX..XXXXXXXX....OOOOOOOOOOOOOO",
"OOOOXXXXOO..XXXX....ooOOOOXXXXXX............XXXX..OOOOOOOOOOOOOO",
"OOOOXXXXOO..XXXX....ooOOOOXXXXXX............XXXX..OOOOOOOOOOOOOO",
"OOXXXXOOOO....XXXXXXXXXXXX........OOOOOOOOOOOO..XX..OOOOOOOOOOOO",
"OOXXXXOOOO....XXXXXXXXXXXX........OOOOOOOOOOOO..XX..OOOOOOOOOOOO",
"XXXXOOOOOOoo....XXXXXX......OOOOOOOOOOOOOOOOOO..XXOOOOOOOOOOXXXX",
"XXXXOOOOOOoo....XXXXXX......OOOOOOOOOOOOOOOOOO..XXOOOOOOOOOOXXXX",
"OOOOOOOOoooo........XXXXXX......OOOOOOOOOOOOOO....XXOOOOXXXXXXOO",
"OOOOOOOOoooo........XXXXXX......OOOOOOOOOOOOOO....XXOOOOXXXXXXOO",
"OOOOOOOOoo....OOOO......XXXXXX..OOOOOOOOOOOOOOoo..XXOOOOXXOOOOOO",
"OOOOOOOOoo....OOOO......XXXXXX..OOOOOOOOOOOOOOoo..XXOOOOXXOOOOOO",
"OOOOOOOOOOoo..OOOOOOOO......XX..OOOOOOOOOOOOOOOO....XXXXXXOOOOOO",
"OOOOOOOOOOoo..OOOOOOOO......XX..OOOOOOOOOOOOOOOO....XXXXXXOOOOOO",
"OOOOOOOOOOoo..OOOOOOOOOOOO....XX..OOOOOOOOOOXXXXXX..XXXXOOOOOOOO",
"OOOOOOOOOOoo..OOOOOOOOOOOO....XX..OOOOOOOOOOXXXXXX..XXXXOOOOOOOO",
"OOOOOOOOOOOOooOOOOOOOOOOOOOO..XX..OOOOOOOOXXXXOOOO....XXOOOOOOOO",
"OOOOOOOOOOOOooOOOOOOOOOOOOOO..XX..OOOOOOOOXXXXOOOO....XXOOOOOOOO",
"OOOOOOOOOOOOooOOOOOOOOOOOOOOXXXX..OOOOOOOOXXOOOOOOoo..XXOOOOOOOO",
"OOOOOOOOOOOOooOOOOOOOOOOOOOOXXXX..OOOOOOOOXXOOOOOOoo..XXOOOOOOOO",
"OOOOOOOOOOOOooOOOOOOOOOOOOOOXX....OOOOOOOOXXOOOOOOoo..XXXXOOOOOO",
"OOOOOOOOOOOOooOOOOOOOOOOOOOOXX....OOOOOOOOXXOOOOOOoo..XXXXOOOOOO",
"OOOOOOOOOOooooOOOOOOOOOOOOOOXX..OOOOOOOOXXXXOOOOOOOO..OOXXXXXXOO",
"OOOOOOOOOOooooOOOOOOOOOOOOOOXX..OOOOOOOOXXXXOOOOOOOO..OOXXXXXXOO",
"OOOOOOOOOOooOOOOOOOOOOOOOOOOXX..OOOOOOOOXXOOOOOOOOOO..OOOOOOXXXX",
"OOOOOOOOOOooOOOOOOOOOOOOOOOOXX..OOOOOOOOXXOOOOOOOOOO..OOOOOOXXXX",
"OOOOOOOOOOooOOOOOOOOOOOOOOOOXX..OOOOOOOOXXOOOOOOOOOO..OOOOOOOOXX",
"OOOOOOOOOOooOOOOOOOOOOOOOOOOXX..OOOOOOOOXXOOOOOOOOOO..OOOOOOOOXX"
};
