/* XPM */
static char *_99d954ce7ea4408acf45228513c34dcxHPNkpjr0gXVxHXN[] = {
/* columns rows colors chars-per-pixel */
"32 32 5 1 ",
"  c black",
". c #143503",
"X c #353733",
"o c #1E5700",
"O c #504F4F",
/* pixels */
" OOOOoOOOOOOOOX.OOOOOOOOO.OOOOOO",
"OXOOOoOOOOOOOOX.OOOOOOOOO.OOOOOO",
"OXXOO.ooOOOOOXX.OOOOOOOOO.OOOOOO",
"OOXOO..oOOOOXX..OOOOOOOOO.OOOOOO",
"OOXXOO.ooOOXX..oOOOOOOOOo.OOOOOO",
"OOOXXO..oOOX..oooOOooOOOo.OOOOOO",
"OOO.XX..ooooX..OooooOOOOo.OOOOOO",
"OO...XXXXXXXXX...OOOOOOoo.OOOOOO",
"...O..........XX..O....o.OOOOO..",
"OOOOoooooooooo.XX..XXXXXXXXOOO.o",
"OOOooOOOOOOOOOo.XXXX......XO..oo",
"XXOOOOOOOOOOOOoo.XX..ooOOO.X.ooO",
".XXOOOOOOOOOOOOoo.X.OOOOOO.XXXXX",
"...XOOOOOOOOOOOOooX.OOOOOO......",
"OO..XOOOOOOOOOOOOoX.OOOOOOOOOOOO",
"OOO..XOOOOOOOOOOOoX.OOOOOOOOOOOO",
"OOOO..XoOOOOOOOOO.X.OOOOOOOOOOOO",
"OOOOO.XooOOOOOOOOXX.....OOOOOOOO",
"OOOOO.X.oooOOOOOXX.XXXX..OOOOOOO",
"OOOOO.XX..oOOXXX......XX.OOOOOOO",
"OOOOO..XXXXXX....OOOOOO.X.OOOOOO",
"OOOOOo..XXX...OOOOOOOOO.XOOOOOOO",
"OOOOoo....XXX...OOOOOOO..XOOOOOO",
"OOOOo..OO...XXX.OOOOOOOo.XOOOOOO",
"OOOOOo.OOOO...X.OOOOOOOO..XOOOOO",
"OOOOOo.OOOOOO..X.OOOOOOOO.XOOOOO",
"OOOOOOoOOOOOOO.X.OOOOOOOO..XOOOO",
"OOOOOOoOOOOOOOXX.OOOOOOOOo.XOOOO",
"OOOOOOoOOOOOOOX..OOOOOOOOo.XXOOO",
"OOOOOooOOOOOOOX.OOOOOOOOOO.OXXXO",
"OOOOOoOOOOOOOOX.OOOOOOOOOO.OOOXX",
"OOOOOoOOOOOOOOX.OOOOOOOOOO.OOOOX"
};
