/* XPM */
static char *_d4eccc14989403ff7a075e9af355e01aFCeccCM3tsfS9Zn[] = {
/* columns rows colors chars-per-pixel */
"32 32 7 1 ",
"  c None",
". c black",
"X c #143503",
"o c #431C00",
"O c #532300",
"+ c #797800",
"@ c #E2E000",
/* pixels */
"                                ",
"                                ",
"                                ",
"                                ",
"                                ",
"           ....X.....           ",
"          .ooooXooooo.          ",
"          .oOOOXOOOOo.          ",
"         .ooOOXOOOOOOo.         ",
"         XXXXXX++OOOOo.         ",
"         .oOOOO@@OOOOOo.        ",
"        .ooOOOO@@OOOOOo.        ",
"        .oO+@@@@@@@@+Oo.        ",
"       .oOO+@@@@@@@@+OOo.       ",
"       .oOOOOOO@@OOOOOOo.       ",
"       .oOOOOOO@@OOOOOOo.       ",
"       .ooOOOOO@@OOOOOOo.       ",
"        .oOOOOO@@OOOOOo.        ",
"        .oOOOOO@@OOOOOo.        ",
"        .oOOOOO++OOOOOo.        ",
"        .oOOOOOOOOOOOOo.        ",
"         .oOOOOOOOOOOo.         ",
"         .oXOOOOOOOOOo.         ",
"         .oXOOOOOOOOOo.         ",
"         .oXOOOOOOOOXXX         ",
"         .XXOOOOOOXXXo.         ",
"          XoOOOOOOXOO.          ",
"          .oOOOOOXOOO.          ",
"          .oooooooooo.          ",
"           ..........           ",
"                                ",
"                                "
};
