/* XPM */
static char *_de3e9b254294a1faf804d160e0d58a6cAC2rw1u7KaVmnMP[] = {
/* columns rows colors chars-per-pixel */
"32 32 5 1 ",
"  c None",
". c #6E0000",
"X c #E40000",
"o c #FF8D00",
"O c #0085D5",
/* pixels */
"                                ",
"                                ",
"                                ",
"                                ",
"                                ",
"             oooooo             ",
"             oooooo             ",
"             OooooO             ",
"             OXXX.O             ",
"             OXXX.O             ",
"             OXXX.O             ",
"             OXXX.O             ",
"             OXXX.O             ",
"             OXXX.O             ",
"             OXXX.O             ",
"           OOXXXX..OO           ",
"         OOXXXXXXX...OO         ",
"        OXXXXXXXXXXXXXXO        ",
"        OXXXXXXXXXXXXXXO        ",
"       OXXXXXXXXXXXXXXXXO       ",
"       OXXXXXXXXXXXXXX.XO       ",
"       OXXXXXXXXXXXXXX.XO       ",
"       OXXXXXXXXXXXXX..XO       ",
"       OXXXXXXXXXXXX..XXO       ",
"        OXXXXXXXXXX..XXO        ",
"        OXXXXXXXXX..XXXO        ",
"         OOXXXXX...XXOO         ",
"           OOXXXXXXOO           ",
"             OOOOOO             ",
"                                ",
"                                ",
"                                "
};
